<svg width="180" height="40" viewBox="0 0 180 40" xmlns="http://www.w3.org/2000/svg">
    <!-- WiFi Icon -->
    <g id="wifi-icon" transform="translate(0, 0)">
        <!-- Outer signal wave -->
        <path d="M20 4 C12 4, 6 10, 6 18 L6 20 L8 20 L8 18 C8 11.4, 13.4 6, 20 6 C26.6 6, 32 11.4, 32 18 L32 20 L34 20 L34 18 C34 10, 28 4, 20 4 Z" fill="#0066cc"/>
        <!-- Middle signal wave -->
        <path d="M20 12 C15.6 12, 12 15.6, 12 20 L12 22 L14 22 L14 20 C14 16.7, 16.7 14, 20 14 C23.3 14, 26 16.7, 26 20 L26 22 L28 22 L28 20 C28 15.6, 24.4 12, 20 12 Z" fill="#0066cc"/>
        <!-- Inner signal wave -->
        <path d="M20 18 C18.9 18, 18 18.9, 18 20 L18 22 L20 22 L22 22 L22 20 C22 18.9, 21.1 18, 20 18 Z" fill="#0066cc"/>
        <!-- Network node - bottom aligns with text baseline at y=30 -->
        <circle cx="20" cy="28.5" r="1.5" fill="#0066cc"/>
    </g>
    <!-- Company Name -->
    <text x="32" y="30" font-family="Arial, sans-serif" font-size="22" font-weight="700" letter-spacing="-0.02em" fill="#1e3a5f" dominant-baseline="alphabetic">Nimble Resolve</text>
</svg>

