<svg width="200" height="150" viewBox="0 0 200 150" xmlns="http://www.w3.org/2000/svg">
    <!-- WiFi Icon -->
    <g id="wifi-icon" transform="translate(100, 35)">
        <!-- Outer signal wave -->
        <path d="M0 -16 C-8 -16, -14 -10, -14 -2 L-14 0 L-12 0 L-12 -2 C-12 -8.6, -6.6 -14, 0 -14 C6.6 -14, 12 -8.6, 12 -2 L12 0 L14 0 L14 -2 C14 -10, 8 -16, 0 -16 Z" fill="#0066cc"/>
        <!-- Middle signal wave -->
        <path d="M0 -8 C-4.4 -8, -8 -4.4, -8 0 L-8 2 L-6 2 L-6 0 C-6 -3.3, -3.3 -6, 0 -6 C3.3 -6, 6 -3.3, 6 0 L6 2 L8 2 L8 0 C8 -4.4, 4.4 -8, 0 -8 Z" fill="#0066cc"/>
        <!-- Inner signal wave -->
        <path d="M0 -2 C-1.1 -2, -2 -1.1, -2 0 L-2 2 L0 2 L2 2 L2 0 C2 -1.1, 1.1 -2, 0 -2 Z" fill="#0066cc"/>
        <!-- Network node -->
        <circle cx="0" cy="0" r="1.5" fill="#0066cc"/>
    </g>
    <!-- Company Name -->
    <text x="100" y="85" font-family="Arial, sans-serif" font-size="22" font-weight="700" letter-spacing="-0.02em" fill="#1e3a5f" text-anchor="middle">Nimble Resolve</text>
</svg>

